<svg xmlns="http://www.w3.org/2000/svg" width="33" height="38" viewBox="0 0 33 38" fill="none">
  <g clip-path="url(#clip0_56_1558)">
    <path d="M16.1205 4.62891C9.44395 4.62891 4.03015 10.8468 4.03015 18.5151C4.03015 26.1834 9.44395 32.4013 16.1205 32.4013C17.2355 32.4013 18.1356 31.3676 18.1356 30.087C18.1356 29.4852 17.9341 28.9452 17.6117 28.5286C17.3027 28.1275 17.1012 27.5874 17.1012 27.0011C17.1012 25.7205 18.0012 24.6868 19.1162 24.6868H21.494C25.2017 24.6868 28.2109 21.2306 28.2109 16.9722C28.2109 10.1525 22.7971 4.62891 16.1205 4.62891ZM8.73196 18.5151C7.61696 18.5151 6.7169 17.4814 6.7169 16.2008C6.7169 14.9201 7.61696 13.8864 8.73196 13.8864C9.84696 13.8864 10.747 14.9201 10.747 16.2008C10.747 17.4814 9.84696 18.5151 8.73196 18.5151ZM12.7621 12.3435C11.6471 12.3435 10.747 11.3097 10.747 10.0291C10.747 8.74848 11.6471 7.71473 12.7621 7.71473C13.8771 7.71473 14.7771 8.74848 14.7771 10.0291C14.7771 11.3097 13.8771 12.3435 12.7621 12.3435ZM19.479 12.3435C18.364 12.3435 17.4639 11.3097 17.4639 10.0291C17.4639 8.74848 18.364 7.71473 19.479 7.71473C20.594 7.71473 21.494 8.74848 21.494 10.0291C21.494 11.3097 20.594 12.3435 19.479 12.3435ZM23.5091 18.5151C22.3941 18.5151 21.494 17.4814 21.494 16.2008C21.494 14.9201 22.3941 13.8864 23.5091 13.8864C24.6241 13.8864 25.5241 14.9201 25.5241 16.2008C25.5241 17.4814 24.6241 18.5151 23.5091 18.5151Z" fill="black"/>
  </g>
  <defs>
    <clipPath id="clip0_56_1558">
      <rect width="32.241" height="37.0299" fill="white"/>
    </clipPath>
  </defs>
</svg>