<svg xmlns="http://www.w3.org/2000/svg" width="30" height="33" viewBox="0 0 30 33" fill="none">
  <g clip-path="url(#clip0_56_1296)">
    <path d="M27.4998 22.0898V5.72482C27.4998 4.22469 26.3748 2.99731 24.9998 2.99731H9.99975C8.62476 2.99731 7.49976 4.22469 7.49976 5.72482V22.0898C7.49976 23.59 8.62476 24.8173 9.99975 24.8173H24.9998C26.3748 24.8173 27.4998 23.59 27.4998 22.0898ZM13.7498 16.6348L16.2873 20.3306L19.9998 15.2711L24.9998 22.0898H9.99975L13.7498 16.6348ZM2.49976 8.45232V27.5448C2.49976 29.045 3.62476 30.2724 4.99976 30.2724H22.4998V27.5448H4.99976V8.45232H2.49976Z" fill="#4F62C8"/>
  </g>
  <defs>
    <clipPath id="clip0_56_1296">
      <rect width="30" height="32.73" fill="white" transform="translate(0 0.27002)"/>
    </clipPath>
  </defs>
</svg>