<svg xmlns="http://www.w3.org/2000/svg" width="33" height="38" viewBox="0 0 33 38" fill="none">
  <g clip-path="url(#clip0_56_1568)">
    <path d="M18.8069 3.08545H5.37315C3.882 3.08545 2.6864 4.47407 2.6864 6.17127V21.6004H5.37315V6.17127H18.8069V3.08545ZM24.1804 9.2571H10.7466C9.2555 9.2571 8.0599 10.6457 8.0599 12.3429V27.7721H10.7466V12.3429H24.1804V9.2571ZM26.8671 15.4288H16.1201C14.629 15.4288 13.4334 16.8174 13.4334 18.5146V30.8579C13.4334 32.5551 14.629 33.9437 16.1201 33.9437H26.8671C28.3449 33.9437 29.5539 32.5551 29.5539 30.8579V18.5146C29.5539 16.8174 28.3449 15.4288 26.8671 15.4288Z" fill="black"/>
  </g>
  <defs>
    <clipPath id="clip0_56_1568">
      <rect width="32.241" height="37.0299" fill="white"/>
    </clipPath>
  </defs>
</svg>