<svg width="54" height="70" viewBox="0 0 54 70" fill="none" xmlns="http://www.w3.org/2000/svg">
<path d="M23.7106 30.45L8.27693 2.1C7.28121 0.7 6.03655 0 4.79191 0C3.54726 0 2.3026 0.7 1.30688 2.1C-0.435627 4.9 -0.435627 9.1 1.30688 11.9L13.5045 35L1.30688 58.1C-0.435627 60.9 -0.435627 65.1 1.30688 67.9C2.3026 69.3 3.54726 70 4.79191 70C6.03655 70 7.28121 69.3 8.27693 67.9L23.7106 39.55C25.4531 37.45 25.4531 33.25 23.7106 30.45Z" fill="#D3C49C"/>
<path d="M30.2894 30.45L45.7231 2.1C46.7188 0.7 47.9635 0 49.2081 0C50.4528 0 51.6974 0.7 52.6931 2.1C54.4356 4.9 54.4356 9.1 52.6931 11.9L40.4955 35L52.6931 58.1C54.4356 60.9 54.4356 65.1 52.6931 67.9C51.6974 69.3 50.4528 70 49.2081 70C47.9635 70 46.7188 69.3 45.7231 67.9L30.2894 39.55C28.5468 37.45 28.5468 33.25 30.2894 30.45Z" fill="#D3C49C"/>
</svg>
